# xmcd
#
# Track frame offsets: 
#        150
#        16320
#        16755
#        33870
#        37245
#        52275
#        56265
#        74258
#        75646
#        91891
#        94449
#        101177
#        117662
#        118232
#        135437
#        138130
#        153333
#        157323
#        175466
#        177559
#        194202
#        196917
#        198777
#
# Disc length: 2917 seconds
#
# Revision: 0
# Processed by: cddbd v1.5.2PL0 Copyright (c) Steve Scherf et al.
# Submitted via: ExactAudioCopy v0.99pb5
#
DISCID=500b6317
DTITLE=Highlands Country - October 17, 2010
DYEAR=2010
DGENRE=Country
TTITLE0=Get Up In Jesus' Name
TTITLE1=Talking
TTITLE2=Beautiful One
TTITLE3=Talking
TTITLE4=God's Been Good To Me
TTITLE5=Welcome
TTITLE6=The Shoebox
TTITLE7=Talking
TTITLE8=Everything Is Fine
TTITLE9=Prayer
TTITLE10=Delete Me
TTITLE11=Get Up In Jesus' Name
TTITLE12=Talking
TTITLE13=Beautiful One
TTITLE14=Talking
TTITLE15=God's Been Good To Me
TTITLE16=Welcome
TTITLE17=The Shoebox
TTITLE18=Talking
TTITLE19=Everything Is Fine
TTITLE20=Prayer
TTITLE21=Delete Me
TTITLE22=God Is There
EXTD=
EXTT0=
EXTT1=
EXTT2=
EXTT3=
EXTT4=
EXTT5=
EXTT6=
EXTT7=
EXTT8=
EXTT9=
EXTT10=
EXTT11=
EXTT12=
EXTT13=
EXTT14=
EXTT15=
EXTT16=
EXTT17=
EXTT18=
EXTT19=
EXTT20=
EXTT21=
EXTT22=
PLAYORDER=
